<svg width="15" height="16" viewBox="0 0 15 16" fill="none" xmlns="http://www.w3.org/2000/svg">
<path fill-rule="evenodd" clip-rule="evenodd" d="M7.5 15.8C3.35786 15.8 0 12.3078 0 7.99995C0 3.69213 3.35786 0.199951 7.5 0.199951C11.6421 0.199951 15 3.69213 15 7.99995C15 12.3078 11.6421 15.8 7.5 15.8ZM7.50001 14.382C10.889 14.382 13.6364 11.5247 13.6364 8.00014C13.6364 4.47556 10.889 1.61832 7.50001 1.61832C4.11099 1.61832 1.36365 4.47556 1.36365 8.00014C1.36365 11.5247 4.11099 14.382 7.50001 14.382ZM10.2461 5.89249C9.97268 5.60809 9.51758 5.60809 9.24411 5.89249L6.85717 8.37491C6.46372 8.7841 5.80895 8.7841 5.4155 8.37491L5.07402 8.01977C4.80055 7.73536 4.34545 7.73536 4.07198 8.01977C3.81327 8.28883 3.81327 8.7142 4.07198 8.98326L5.4155 10.3805C5.80896 10.7897 6.46372 10.7897 6.85717 10.3805L10.2461 6.85599C10.5049 6.58693 10.5049 6.16156 10.2461 5.89249Z" fill="#0b4f7f"/>
</svg>
