<svg xmlns="http://www.w3.org/2000/svg">

    <!-- <symbol viewBox="0 0 46 54" fill="none" id="help-icon">
        
       
<path d="M16.0658 35.4429V35.473C16.0658 39.1483 19.1668 42.1385 22.9782 42.1385C26.7897 42.1385 29.8906 39.1483 29.8906 35.473V35.4318C27.7736 36.3299 25.4353 36.8296 22.9782 36.8296C20.5592 36.8296 18.2166 36.3513 16.0658 35.4429Z" fill="white"/>
<path d="M17.7064 6.77802C18.4669 6.77802 19.1232 7.28229 19.3005 7.98679C20.1554 11.2662 23.2 13.556 26.7081 13.556H36.9197V10.0529C36.9197 4.50961 32.2431 0 26.4945 0H19.4616C13.7134 0 9.03632 4.50961 9.03632 10.0529V10.7714L16.9724 6.94528C17.2001 6.83528 17.4514 6.77802 17.7064 6.77802Z" fill="white"/>
<path d="M22.9782 33.6655C30.6657 33.6655 36.9197 27.6348 36.9197 20.2219V16.72H26.7081C22.3707 16.72 18.5285 14.2712 16.7789 10.576L9.03632 14.3091V20.2236C9.03632 23.814 10.4864 27.1894 13.1195 29.7285C15.7526 32.2672 19.2531 33.6655 22.9782 33.6655Z" fill="white"/>
<path d="M33.1719 35.3894V35.4726C33.1719 40.8927 28.5991 45.3022 22.9782 45.3022C17.3574 45.3022 12.7845 40.8927 12.7845 35.4726V35.3894C5.2757 37.9186 0.25 44.7279 0.25 52.4177C0.25 53.2915 0.984436 53.9997 1.89062 53.9997H44.0658C44.9716 53.9997 45.7064 53.2907 45.7064 52.4169C45.7064 44.7279 40.6807 37.919 33.1719 35.3894Z" fill="white"/>
<path d="M9.03632 33.6656C9.94251 33.6656 10.6769 32.9574 10.6769 32.0836C10.6769 31.2098 9.94251 30.5016 9.03632 30.5016C7.28846 30.5016 5.75508 28.0737 5.75508 25.3056V10.5087C5.09883 10.755 4.49556 11.1295 3.98329 11.6243C3.01002 12.5624 2.47383 13.8103 2.47383 15.1382V25.3056C2.47383 27.4376 3.0912 29.4621 4.21229 31.0059C5.43977 32.6962 7.19789 33.6656 9.03632 33.6656Z" fill="white"/>


    </symbol> -->

    <symbol viewBox="0 0 18 12" fill="none" id="quiz-next">
        <path d="M1 5.25C0.585787 5.25 0.25 5.58579 0.25 6C0.25 6.41421 0.585786 6.75 1 6.75L1 5.25ZM17.5303 6.53033C17.8232 6.23744 17.8232 5.76257 17.5303 5.46967L12.7574 0.696701C12.4645 0.403808 11.9896 0.403808 11.6967 0.696701C11.4038 0.989594 11.4038 1.46447 11.6967 1.75736L15.9393 6L11.6967 10.2426C11.4038 10.5355 11.4038 11.0104 11.6967 11.3033C11.9896 11.5962 12.4645 11.5962 12.7574 11.3033L17.5303 6.53033ZM1 6.75L17 6.75L17 5.25L1 5.25L1 6.75Z" fill="white"/>
    </symbol>

    <symbol viewBox="0 0 18 12" fill="none" id="quiz-prev">
        <path d="M17 6.75C17.4142 6.75 17.75 6.41421 17.75 6C17.75 5.58579 17.4142 5.25 17 5.25V6.75ZM0.469669 5.46967C0.176777 5.76256 0.176777 6.23744 0.469669 6.53033L5.24264 11.3033C5.53553 11.5962 6.01041 11.5962 6.3033 11.3033C6.59619 11.0104 6.59619 10.5355 6.3033 10.2426L2.06066 6L6.3033 1.75736C6.59619 1.46447 6.59619 0.989593 6.3033 0.696699C6.01041 0.403806 5.53553 0.403806 5.24264 0.696699L0.469669 5.46967ZM17 5.25L1 5.25V6.75L17 6.75V5.25Z" fill="#373737"/>
    </symbol>

    <symbol viewBox="0 0 50 48" id="logo">
        <path d="M26.0135 45.0031H24.0068C23.8276 45.0031 23.6557 44.9348 23.529 44.8131C23.4023 44.6915 23.3311 44.5265 23.3311 44.3545C23.3311 44.1824 23.4023 44.0174 23.529 43.8958C23.6557 43.7741 23.8276 43.7058 24.0068 43.7058H26.0135C26.1927 43.7058 26.3646 43.7741 26.4913 43.8958C26.618 44.0174 26.6892 44.1824 26.6892 44.3545C26.6892 44.5265 26.618 44.6915 26.4913 44.8131C26.3646 44.9348 26.1927 45.0031 26.0135 45.0031Z"/>
        <path d="M12.5811 45.0031H8.07433C7.89513 45.0031 7.72327 44.9347 7.59655 44.8131C7.46984 44.6915 7.39865 44.5265 7.39865 44.3544V25.9912C7.39865 25.8191 7.46984 25.6542 7.59655 25.5325C7.72327 25.4109 7.89513 25.3425 8.07433 25.3425C8.25353 25.3425 8.42539 25.4109 8.5521 25.5325C8.67882 25.6542 8.75 25.8191 8.75 25.9912V43.7058H12.5811C12.7603 43.7058 12.9321 43.7741 13.0589 43.8958C13.1856 44.0174 13.2568 44.1824 13.2568 44.3544C13.2568 44.5265 13.1856 44.6915 13.0589 44.8131C12.9321 44.9347 12.7603 45.0031 12.5811 45.0031Z"/>
        <path d="M19.277 45.0031H17.3108C17.1316 45.0031 16.9597 44.9348 16.833 44.8131C16.7063 44.6915 16.6351 44.5265 16.6351 44.3545C16.6351 44.1824 16.7063 44.0174 16.833 43.8958C16.9597 43.7741 17.1316 43.7058 17.3108 43.7058H19.277C19.4562 43.7058 19.6281 43.7741 19.7548 43.8958C19.8815 44.0174 19.9527 44.1824 19.9527 44.3545C19.9527 44.5265 19.8815 44.6915 19.7548 44.8131C19.6281 44.9348 19.4562 45.0031 19.277 45.0031Z"/>
        <path d="M41.9257 45.0031H30.7432C30.564 45.0031 30.3922 44.9347 30.2655 44.8131C30.1388 44.6915 30.0676 44.5265 30.0676 44.3544C30.0676 44.1824 30.1388 44.0174 30.2655 43.8958C30.3922 43.7741 30.564 43.7058 30.7432 43.7058H41.25V25.9912C41.25 25.8191 41.3212 25.6542 41.4479 25.5325C41.5746 25.4109 41.7465 25.3425 41.9257 25.3425C42.1049 25.3425 42.2767 25.4109 42.4034 25.5325C42.5302 25.6542 42.6013 25.8191 42.6013 25.9912V44.3544C42.6013 44.5265 42.5302 44.6915 42.4034 44.8131C42.2767 44.9347 42.1049 45.0031 41.9257 45.0031Z"/>
        <path d="M45.1486 28.5366C44.262 28.5362 43.4088 28.2115 42.7628 27.6285L25 11.6809L7.23715 27.6324C6.90168 27.9332 6.50775 28.1676 6.07786 28.3222C5.64797 28.4768 5.19056 28.5485 4.73179 28.5333C4.27301 28.518 3.82186 28.4161 3.40413 28.2334C2.9864 28.0507 2.61028 27.7907 2.29728 27.4683C1.98348 27.1468 1.73874 26.7691 1.57704 26.3568C1.41535 25.9445 1.33988 25.5056 1.35494 25.0652C1.37 24.6249 1.4753 24.1917 1.66481 23.7905C1.85433 23.3892 2.12435 23.0277 2.45945 22.7267L8.02431 17.7321C8.15522 17.6145 8.32942 17.5517 8.50859 17.5574C8.68776 17.5631 8.85723 17.6369 8.97972 17.7626C9.1022 17.8883 9.16766 18.0555 9.16171 18.2275C9.15575 18.3995 9.07886 18.5622 8.94796 18.6798L3.38174 23.6757C3.17593 23.8605 3.01006 24.0825 2.8936 24.3288C2.77714 24.5752 2.71237 24.8412 2.70299 25.1116C2.68404 25.6578 2.89186 26.1887 3.28073 26.5878C3.66959 26.9868 4.20765 27.2212 4.77653 27.2394C5.34541 27.2576 5.89852 27.0581 6.31418 26.6847L24.5378 10.3187C24.6631 10.206 24.8283 10.1432 25 10.1432C25.1717 10.1432 25.3369 10.206 25.4621 10.3187L43.6851 26.6828C44.1068 27.0423 44.6563 27.2327 45.22 27.2144C45.7837 27.1962 46.3186 26.9708 46.7142 26.5849C46.9073 26.3881 47.0581 26.1567 47.158 25.904C47.2579 25.6512 47.3049 25.382 47.2963 25.1118C47.2877 24.8416 47.2237 24.5757 47.1079 24.3293C46.9921 24.0828 46.8269 23.8607 46.6216 23.6757L26.4628 5.57837C26.0653 5.22366 25.5427 5.0265 25 5.0265C24.4573 5.0265 23.9347 5.22366 23.5371 5.57837L16.1263 12.2309C16.0629 12.2945 15.9866 12.3451 15.9021 12.3795C15.8176 12.4139 15.7267 12.4314 15.635 12.431C15.5432 12.4306 15.4525 12.4122 15.3684 12.377C15.2842 12.3418 15.2085 12.2906 15.1456 12.2263C15.0828 12.1621 15.0343 12.0863 15.003 12.0035C14.9718 11.9207 14.9584 11.8326 14.9637 11.7446C14.969 11.6567 14.993 11.5707 15.0341 11.4919C15.0752 11.4132 15.1325 11.3433 15.2027 11.2865L22.6149 4.63199C23.2631 4.05379 24.1151 3.73242 25 3.73242C25.8848 3.73242 26.7369 4.05379 27.3851 4.63199L47.5412 22.7293C48.0523 23.1903 48.4074 23.788 48.5605 24.445C48.7136 25.102 48.6576 25.788 48.3998 26.4141C48.1419 27.0402 47.6942 27.5775 47.1145 27.9564C46.5348 28.3354 45.8499 28.5384 45.1486 28.5392V28.5366Z"/>
        <path d="M8.48515 18.8509C8.30595 18.8509 8.13409 18.7826 8.00738 18.6609C7.88067 18.5393 7.80948 18.3743 7.80948 18.2023V3.64401C7.80948 3.47198 7.88067 3.30699 8.00738 3.18535C8.13409 3.0637 8.30595 2.99536 8.48515 2.99536H15.6656C15.8448 2.99536 16.0166 3.0637 16.1433 3.18535C16.27 3.30699 16.3412 3.47198 16.3412 3.64401V11.7573C16.3412 11.9293 16.27 12.0943 16.1433 12.216C16.0166 12.3376 15.8448 12.406 15.6656 12.406C15.4864 12.406 15.3145 12.3376 15.1878 12.216C15.0611 12.0943 14.9899 11.9293 14.9899 11.7573V4.29266H9.16083V18.2023C9.16083 18.3743 9.08964 18.5393 8.96293 18.6609C8.83622 18.7826 8.66435 18.8509 8.48515 18.8509Z"/>
        <path d="M24.3243 39.5676C24.1873 39.5676 24.0535 39.5277 23.9407 39.4531C23.8279 39.3785 23.7413 39.2728 23.6926 39.1498C22.6709 36.8033 21.3733 34.5766 19.825 32.5129C19.1194 31.56 18.5907 30.4972 18.2621 29.3715L18.1946 29.1211C17.8006 27.7039 17.9372 26.199 18.5804 24.8686C19.1011 23.8309 19.9164 22.9553 20.9324 22.3426C21.9483 21.7298 23.1238 21.4048 24.3236 21.4048C25.5235 21.4048 26.6989 21.7298 27.7149 22.3426C28.7309 22.9553 29.5461 23.8309 30.0669 24.8686C30.7088 26.1982 30.8455 27.7016 30.4534 29.1178L30.3858 29.3663C30.0571 30.4926 29.5284 31.556 28.823 32.5096C27.2806 34.5764 25.9844 36.8026 24.9588 39.1466C24.9104 39.2705 24.8237 39.3773 24.7103 39.4525C24.5968 39.5278 24.4622 39.5679 24.3243 39.5676ZM24.3243 22.7027C23.3778 22.701 22.4501 22.9569 21.6489 23.4407C20.8476 23.9244 20.2056 24.6163 19.7973 25.4361C19.2928 26.4914 19.1898 27.6832 19.5061 28.8039L19.5676 29.029C19.855 30.0102 20.3167 30.9365 20.9324 31.7669C22.2192 33.5073 23.3537 35.3468 24.3243 37.2668C25.2934 35.346 26.4278 33.5061 27.7155 31.7663C28.3313 30.9354 28.793 30.0087 29.0804 29.027L29.1419 28.8013C29.4571 27.6814 29.3541 26.4908 28.8507 25.4361C28.4427 24.6162 27.8008 23.9242 26.9996 23.4404C26.1985 22.9566 25.2708 22.7008 24.3243 22.7027Z"/>
        <path d="M24.3243 31.0736C23.6119 31.0736 22.9155 30.8708 22.3231 30.4908C21.7308 30.1109 21.2691 29.5708 20.9965 28.939C20.7239 28.3071 20.6525 27.6118 20.7915 26.941C20.9305 26.2703 21.2736 25.6541 21.7773 25.1705C22.2811 24.6869 22.9229 24.3576 23.6216 24.2242C24.3203 24.0907 25.0446 24.1592 25.7028 24.4209C26.3609 24.6827 26.9235 25.1259 27.3193 25.6945C27.7151 26.2632 27.9264 26.9317 27.9264 27.6157C27.9251 28.5324 27.5452 29.4112 26.87 30.0595C26.1947 30.7077 25.2793 31.0724 24.3243 31.0736ZM24.3243 25.455C23.8792 25.455 23.444 25.5817 23.0739 25.8191C22.7038 26.0566 22.4153 26.394 22.245 26.7888C22.0746 27.1836 22.03 27.6181 22.1169 28.0372C22.2037 28.4563 22.4181 28.8413 22.7329 29.1435C23.0476 29.4456 23.4486 29.6514 23.8852 29.7348C24.3218 29.8182 24.7744 29.7754 25.1856 29.6118C25.5969 29.4483 25.9484 29.1714 26.1957 28.8161C26.443 28.4607 26.575 28.043 26.575 27.6157C26.5745 27.0428 26.3372 26.4935 25.9152 26.0884C25.4932 25.6833 24.9211 25.4555 24.3243 25.455Z"/>
    </symbol>


    <symbol viewBox="0 0 80 80" fill="none" id="quiz-thanks">
        
        <circle cx="40" cy="40" r="38.5" stroke="#0b4f7f" stroke-width="3"/>
        <path fill-rule="evenodd" clip-rule="evenodd" d="M54.0721 29.5825C54.7032 30.2379 54.7032 31.3006 54.0721 31.956L36.2943 50.4175C35.6631 51.073 34.6399 51.073 34.0087 50.4175L25.9279 42.0259C25.2967 41.3705 25.2967 40.3078 25.9279 39.6524C26.559 38.997 27.5823 38.997 28.2135 39.6524L35.1515 46.8573L51.7865 29.5825C52.4176 28.9271 53.4409 28.9271 54.0721 29.5825Z" fill="#0b4f7f"/>


    </symbol>
    
    <symbol viewBox="0 0 35 35" fill="none" id="quiz-inst">
        
        <path d="M22.0599 8.68402H12.8532C10.5493 8.68402 8.6748 10.5585 8.6748 12.8624V22.1536C8.6748 24.4575 10.5493 26.332 12.8532 26.332H22.0599C24.3638 26.332 26.2383 24.4575 26.2383 22.1536V12.8624C26.2383 10.5585 24.3638 8.68402 22.0599 8.68402ZM17.4741 23.0713C14.3512 23.0713 11.8106 20.5577 11.8106 17.4681C11.8106 14.3785 14.3515 11.8648 17.4741 11.8648C20.5967 11.8648 23.1377 14.3785 23.1377 17.4681C23.1377 20.5577 20.5971 23.0713 17.4741 23.0713ZM23.2385 12.9682C22.5025 12.9682 21.9059 12.3716 21.9059 11.6356C21.9059 10.8996 22.5025 10.303 23.2385 10.303C23.9745 10.303 24.5711 10.8996 24.5711 11.6356C24.5711 12.3716 23.9745 12.9682 23.2385 12.9682Z" fill="#CDCDCD"/>
        <path d="M17.5 0C7.83511 0 0 7.83511 0 17.5C0 27.1649 7.83511 35 17.5 35C27.1649 35 35 27.1649 35 17.5C35 7.83511 27.1649 0 17.5 0ZM28.3051 22.1536C28.3051 25.5974 25.5033 28.3988 22.0599 28.3988H12.8532C9.40937 28.3988 6.60793 25.597 6.60793 22.1536V12.8624C6.60793 9.4186 9.40973 6.61715 12.8532 6.61715H22.0599C25.5037 6.61715 28.3051 9.41895 28.3051 12.8624V22.1536Z" fill="#CDCDCD"/>
        <path d="M17.4742 13.9277C15.4886 13.9277 13.8735 15.5158 13.8735 17.4681C13.8735 19.4203 15.4886 21.0084 17.4742 21.0084C19.4598 21.0084 21.0748 19.4203 21.0748 17.4681C21.0748 15.5158 19.4598 13.9277 17.4742 13.9277Z" fill="#CDCDCD"/>


    </symbol>

    <symbol viewBox="0 0 35 35" fill="none" id="quiz-vk">
        <path d="M17.5 0C7.83511 0 0 7.83511 0 17.5C0 27.1649 7.83511 35 17.5 35C27.1649 35 35 27.1649 35 17.5C35 7.83511 27.1649 0 17.5 0ZM25.0888 19.8131C25.2265 19.9835 25.5541 20.3153 26.0722 20.8093H26.0843L26.0963 20.821L26.1084 20.8334L26.1329 20.8575C27.2742 21.9179 28.0471 22.8126 28.452 23.5412C28.4765 23.5813 28.5028 23.6324 28.5312 23.6931C28.5592 23.7538 28.5876 23.8609 28.616 24.0146C28.644 24.169 28.6419 24.306 28.61 24.4273C28.5777 24.5483 28.4765 24.6605 28.3065 24.7613C28.1366 24.8628 27.8977 24.9132 27.59 24.9132L24.4816 24.9621C24.2875 25.0026 24.0607 24.9824 23.8017 24.9014C23.5422 24.8202 23.3322 24.7311 23.1703 24.6342L22.9272 24.488C22.6841 24.318 22.4009 24.059 22.0773 23.7112C21.7533 23.363 21.4761 23.0493 21.2454 22.77C21.0148 22.4907 20.7678 22.2565 20.5044 22.0656C20.2411 21.8754 20.0126 21.8125 19.8185 21.8775C19.7943 21.886 19.7617 21.9002 19.7212 21.9201C19.6804 21.9403 19.6119 21.9985 19.5147 22.0961C19.4174 22.1933 19.3305 22.3129 19.2535 22.4542C19.1765 22.5961 19.1076 22.8066 19.0469 23.0859C18.9863 23.3648 18.9596 23.6789 18.9682 24.027C18.9682 24.148 18.9536 24.2598 18.9256 24.361C18.8972 24.4621 18.8667 24.537 18.8344 24.5852L18.7857 24.6459C18.6399 24.8003 18.4255 24.889 18.1423 24.9132H16.7459C16.171 24.9458 15.5801 24.8791 14.9732 24.713C14.3664 24.5466 13.8337 24.3326 13.3766 24.0692C12.9188 23.8066 12.5022 23.5394 12.126 23.2683C11.7495 22.9968 11.4641 22.7643 11.27 22.5702L10.9666 22.2785C10.8857 22.1979 10.7743 22.0762 10.6327 21.914C10.4911 21.7522 10.2018 21.3842 9.76461 20.8093C9.32739 20.2344 8.89834 19.6236 8.47745 18.9756C8.05656 18.3279 7.56079 17.4737 6.98978 16.4133C6.41913 15.3533 5.89106 14.2525 5.40523 13.1108C5.35661 12.9816 5.33212 12.8723 5.33212 12.7832C5.33212 12.6945 5.34419 12.6296 5.36867 12.5888L5.41729 12.516C5.53866 12.362 5.76934 12.285 6.10931 12.285L9.43634 12.2609C9.53358 12.2772 9.62656 12.3034 9.71564 12.34C9.80471 12.3762 9.86966 12.4106 9.91011 12.4429L9.9708 12.4795C10.1003 12.5689 10.1972 12.6981 10.2622 12.8681C10.424 13.2733 10.6103 13.6921 10.8207 14.1251C11.0312 14.558 11.1973 14.8881 11.3186 15.1145L11.5128 15.4669C11.7473 15.9524 11.9741 16.3736 12.1927 16.7295C12.4117 17.0859 12.6076 17.3634 12.7818 17.5614C12.9557 17.7598 13.1236 17.9159 13.2858 18.0288C13.4476 18.1423 13.5853 18.1991 13.6988 18.1991C13.8121 18.1991 13.9214 18.1789 14.0268 18.1384C14.0427 18.1303 14.063 18.11 14.0874 18.0777C14.1119 18.0455 14.1602 17.9564 14.2333 17.8102C14.3061 17.6647 14.3607 17.4744 14.3973 17.2395C14.4338 17.0053 14.4721 16.6774 14.5126 16.2565C14.5531 15.8352 14.5531 15.3295 14.5126 14.7387C14.4963 14.4146 14.4597 14.1194 14.4033 13.8522C14.3465 13.5853 14.2897 13.399 14.2333 13.2936L14.1602 13.1481C13.9579 12.873 13.614 12.6988 13.1282 12.6257C13.0228 12.6101 13.043 12.5128 13.1889 12.3347C13.3266 12.1807 13.4802 12.0596 13.6502 11.9702C14.0793 11.7601 15.0467 11.6629 16.5525 11.6785C17.2161 11.687 17.7626 11.7392 18.1917 11.8364C18.3535 11.8772 18.4891 11.9315 18.5984 12.0004C18.7077 12.0689 18.7907 12.1665 18.8475 12.2914C18.9039 12.417 18.9465 12.5465 18.9749 12.68C19.0033 12.8138 19.0175 12.9983 19.0175 13.2325C19.0175 13.4675 19.0136 13.6903 19.0054 13.9004C18.9973 14.1109 18.9873 14.3965 18.9753 14.7564C18.9632 15.1166 18.9568 15.4509 18.9568 15.7582C18.9568 15.8477 18.9529 16.0173 18.9447 16.2682C18.9366 16.5195 18.9341 16.7136 18.9387 16.8509C18.9426 16.9886 18.9568 17.1529 18.9809 17.3428C19.0054 17.533 19.0519 17.6913 19.1208 17.8162C19.1892 17.9418 19.2804 18.0408 19.394 18.1136C19.4586 18.1303 19.5274 18.1462 19.6006 18.1626C19.6733 18.1785 19.7783 18.1345 19.916 18.0288C20.0534 17.9237 20.2074 17.7839 20.3774 17.61C20.5474 17.4365 20.7578 17.1653 21.0087 16.7966C21.2593 16.429 21.5347 15.9935 21.8342 15.4914C22.32 14.6496 22.753 13.7386 23.1334 12.7591C23.1657 12.6778 23.2062 12.6072 23.2548 12.5465C23.3034 12.4855 23.3478 12.4429 23.3882 12.4188L23.4368 12.3822C23.4528 12.3741 23.473 12.3641 23.4975 12.3521C23.522 12.3404 23.5745 12.3279 23.6554 12.3155C23.7364 12.3038 23.8173 12.3017 23.8985 12.3098L27.3956 12.285C27.7111 12.2449 27.9701 12.2548 28.1724 12.3152C28.3747 12.3758 28.5003 12.4429 28.5489 12.5157L28.622 12.637C28.808 13.1555 28.2011 14.3447 26.8008 16.2068C26.6063 16.4662 26.343 16.8105 26.0115 17.2392C25.3802 18.049 25.0161 18.5792 24.9195 18.8308C24.7811 19.1619 24.8379 19.4898 25.0888 19.8131Z" fill="#CDCDCD"/>
    </symbol>

    <symbol viewBox="0 0 35 35" fill="none" id="quiz-ut">
        
        <path d="M15.5142 20.0608L20.9336 17.1859L15.5142 14.3692V20.0608Z" fill="#CDCDCD"/>
        <path d="M17.5 0C7.83511 0 0 7.83511 0 17.5C0 27.1649 7.83511 35 17.5 35C27.1649 35 35 27.1649 35 17.5C35 7.83511 27.1649 0 17.5 0ZM27.271 21.5758C27.0378 23.0521 26.3242 23.8538 24.8234 24.0235C23.1462 24.213 19.3752 24.3003 17.6991 24.3003C15.9648 24.3003 12.4571 24.2275 10.7061 24.0817C9.20106 23.9564 8.17402 23.1157 7.96713 21.6195C7.81666 20.53 7.71942 19.235 7.71942 17.176C7.71942 14.8838 7.80211 13.9139 7.99623 12.8784C8.27339 11.4006 8.9789 10.6848 10.5894 10.5184C12.2793 10.3434 13.877 10.2561 17.4514 10.2561C19.1988 10.2561 22.9663 10.3466 24.7066 10.5038C26.2266 10.6412 27.0829 11.571 27.2706 13.0533C27.4016 14.0878 27.5184 15.5687 27.5184 17.1618C27.5187 19.9586 27.271 21.5758 27.271 21.5758Z" fill="#CDCDCD"/>
    </symbol>

    <symbol viewBox="0 0 22 16" fill="none" id="quiz-email">
    
        <path d="M21.2143 0.142883H0.785729C0.351776 0.142883 0 0.494659 0 0.928566V15.0714C0 15.5054 0.351776 15.8571 0.785729 15.8571H21.2143C21.6482 15.8571 22 15.5054 22 15.0714V0.928566C22 0.494659 21.6482 0.142883 21.2143 0.142883ZM19.9257 1.7143L11 8.57988L2.07428 1.7143H19.9257ZM20.4285 14.2857H1.57141V3.31006L10.5215 10.1945C10.8037 10.4112 11.1963 10.4112 11.4785 10.1945L20.4285 3.31006V14.2857Z" fill="#373737"/>


    </symbol>

    <symbol viewBox="0 0 22 22" fill="none" id="quiz-whatsapp">
    
        <path fill-rule="evenodd" clip-rule="evenodd" d="M11.0461 21.811H11.0416C9.20824 21.8103 7.40684 21.3526 5.80685 20.4841L0 22L1.55401 16.351C0.595399 14.6977 0.0910333 12.8222 0.0918009 10.9009C0.0942571 4.89016 5.0082 0 11.0459 0C13.9763 0.00126042 16.7266 1.13655 18.7947 3.19722C20.8629 5.25774 22.0012 7.99667 22 10.9095C21.9976 16.9188 17.0856 21.8086 11.0461 21.811ZM6.07596 18.5105L6.40839 18.7069C7.80628 19.5324 9.40865 19.9693 11.0424 19.9699H11.0461C16.0642 19.9699 20.1485 15.9051 20.1505 10.9088C20.1515 8.48777 19.2054 6.21123 17.4864 4.49851C15.7675 2.78579 13.4815 1.84216 11.0496 1.84132C6.02761 1.84132 1.94332 5.90575 1.94132 10.9015C1.94063 12.6136 2.42197 14.281 3.3333 15.7236L3.54983 16.0665L2.63006 19.4101L6.07596 18.5105ZM16.1898 13.2566C16.3807 13.3484 16.5096 13.4104 16.5646 13.5019C16.633 13.6155 16.633 14.1608 16.4051 14.7972C16.1769 15.4334 15.0834 16.0142 14.5575 16.0924C14.086 16.1625 13.4892 16.1918 12.8336 15.9844C12.4361 15.8589 11.9263 15.6913 11.2733 15.4106C8.7074 14.308 6.97332 11.8329 6.64557 11.3652C6.62262 11.3324 6.60658 11.3095 6.5976 11.2976L6.59545 11.2947C6.45061 11.1023 5.48002 9.81358 5.48002 8.47975C5.48002 7.22506 6.09929 6.56743 6.38437 6.2647C6.40394 6.24392 6.4219 6.22483 6.43794 6.20741C6.68886 5.9347 6.98537 5.86649 7.16782 5.86649C7.35027 5.86649 7.53295 5.86817 7.69245 5.87611C7.7121 5.8771 7.73259 5.87703 7.7537 5.87688C7.9132 5.87596 8.11208 5.87481 8.30827 6.34377C8.38372 6.5242 8.49417 6.79179 8.61061 7.07397C8.8461 7.64459 9.10638 8.27503 9.15213 8.36632C9.2206 8.50267 9.26619 8.66164 9.17492 8.84352C9.16126 8.87079 9.1486 8.89653 9.13647 8.92113C9.06793 9.06031 9.01757 9.16275 8.90121 9.29788C8.85554 9.35105 8.80826 9.40834 8.76098 9.46563C8.6668 9.57976 8.57269 9.69388 8.49072 9.77516C8.35363 9.91098 8.21102 10.0583 8.37067 10.331C8.53032 10.6038 9.07967 11.4957 9.89329 12.218C10.768 12.9944 11.5282 13.3226 11.9135 13.489C11.9887 13.5214 12.0497 13.5478 12.0944 13.57C12.368 13.7064 12.5276 13.6836 12.6874 13.5019C12.847 13.3201 13.3716 12.7064 13.554 12.4338C13.7364 12.1612 13.9189 12.2066 14.1698 12.2974C14.4208 12.3884 15.7664 13.0474 16.0401 13.1836C16.0935 13.2103 16.1435 13.2344 16.1898 13.2566Z" fill="white"/>
    </symbol>

</svg>